<svg width="36" height="36" viewBox="0 0 36 36" fill="none" xmlns="http://www.w3.org/2000/svg">
<g id="facebook 1" clip-path="url(#clip0_46_23559)">
<g id="Group">
<path id="Vector" d="M18 36C27.9411 36 36 27.9411 36 18C36 8.05888 27.9411 0 18 0C8.05888 0 0 8.05888 0 18C0 27.9411 8.05888 36 18 36Z" fill="#3B5998"/>
<path id="Vector_2" d="M22.5254 18.706H19.3135V30.4728H14.4472V18.706H12.1328V14.5706H14.4472V11.8946C14.4472 9.98095 15.3562 6.98438 19.3568 6.98438L22.9614 6.99946V11.0135H20.346C19.917 11.0135 19.3138 11.2278 19.3138 12.1407V14.5745H22.9505L22.5254 18.706Z" fill="white"/>
</g>
</g>
<defs>
<clipPath id="clip0_46_23559">
<rect width="36" height="36" fill="white"/>
</clipPath>
</defs>
</svg>
