<svg width="36" height="36" viewBox="0 0 36 36" fill="none" xmlns="http://www.w3.org/2000/svg">
<g id="line 1" clip-path="url(#clip0_46_23548)">
<g id="Layer 2">
<g id="24.line">
<path id="background" d="M18 36C27.9411 36 36 27.9411 36 18C36 8.05887 27.9411 0 18 0C8.05887 0 0 8.05887 0 18C0 27.9411 8.05887 36 18 36Z" fill="#39CD00"/>
<g id="icon">
<path id="shade" d="M29.25 17.5927C29.234 17.8213 29.2046 18.0487 29.162 18.2738C29.0197 19.1358 28.7283 19.9664 28.3009 20.7284C28.0964 21.0925 27.1125 22.4752 26.8118 22.8393C25.1489 24.8418 22.363 27.1531 17.7075 29.4011C17.6093 29.4485 17.5002 29.4689 17.3915 29.4602C17.2827 29.4515 17.1783 29.4139 17.0889 29.3514C16.9995 29.2889 16.9284 29.2037 16.8829 29.1046C16.8374 29.0055 16.8191 28.896 16.83 28.7875L17.0652 26.6745C17.083 26.5129 17.0359 26.3508 16.9343 26.2238C16.8327 26.0969 16.6848 26.0155 16.5232 25.9975C14.9744 25.8425 13.4658 25.4124 12.0682 24.7272C8.87727 23.1502 6.75 20.3336 6.75 17.1243C6.75 12.1825 11.7859 8.18359 18 8.18359C21.1214 8.18359 23.9441 9.20632 25.9773 10.8284C27.8816 12.3522 29.1007 14.4202 29.2316 16.7152C29.2534 17.0071 29.2596 17.3001 29.25 17.5927Z" fill="white"/>
<g id="Group">
<path id="Vector" d="M14.9002 19.1054C14.9546 19.1586 14.9977 19.2223 15.0268 19.2926C15.056 19.3629 15.0707 19.4384 15.0699 19.5145C15.0702 19.5902 15.0555 19.6651 15.0268 19.7351C14.998 19.8051 14.9557 19.8687 14.9023 19.9223C14.8489 19.9758 14.7855 20.0184 14.7156 20.0474C14.6457 20.0764 14.5708 20.0913 14.4952 20.0913H12.194C12.0412 20.0908 11.8948 20.0298 11.7867 19.9218C11.6787 19.8137 11.6177 19.6673 11.6172 19.5145V15.1679C11.6167 15.0918 11.6315 15.0164 11.6606 14.9462C11.6898 14.8759 11.7327 14.8122 11.787 14.7588C11.8675 14.6781 11.9702 14.6231 12.082 14.6009C12.1939 14.5786 12.3098 14.5902 12.4151 14.6341C12.5204 14.6779 12.6102 14.7521 12.6732 14.8472C12.7362 14.9422 12.7694 15.0539 12.7688 15.1679V18.9377H14.4952C14.5705 18.9371 14.6451 18.9517 14.7147 18.9805C14.7842 19.0093 14.8473 19.0518 14.9002 19.1054Z" fill="#00C200"/>
<path id="Vector_2" d="M16.7749 15.0438V19.6399C16.7744 19.7591 16.7268 19.8732 16.6425 19.9575C16.5582 20.0418 16.4441 20.0894 16.3249 20.0899H16.0672C15.9478 20.0899 15.8334 20.0425 15.749 19.9581C15.6646 19.8737 15.6172 19.7593 15.6172 19.6399V15.0438C15.6172 14.9244 15.6646 14.81 15.749 14.7256C15.8334 14.6412 15.9478 14.5938 16.0672 14.5938H16.3188C16.3783 14.5932 16.4374 14.6045 16.4926 14.6268C16.5477 14.6492 16.598 14.6822 16.6403 14.724C16.6827 14.7658 16.7164 14.8156 16.7395 14.8705C16.7626 14.9253 16.7746 14.9842 16.7749 15.0438Z" fill="#00C200"/>
<path id="Vector_3" d="M22.1167 15.1686V19.4906C22.1168 19.6461 22.0564 19.7955 21.9484 19.9074C21.8404 20.0192 21.6932 20.0847 21.5378 20.09C21.3922 20.0876 21.2528 20.0307 21.1471 19.9304C21.1267 19.9141 20.3535 18.9077 19.6969 18.0609C19.206 17.4288 18.7805 16.8766 18.7805 16.8766V19.5131C18.7809 19.6249 18.7487 19.7343 18.6879 19.8281C18.627 19.9218 18.5402 19.9958 18.438 20.0409C18.3357 20.0861 18.2226 20.1004 18.1123 20.0823C18.002 20.0641 17.8995 20.0142 17.8171 19.9386C17.7577 19.8848 17.7103 19.8191 17.6779 19.7458C17.6455 19.6726 17.6288 19.5933 17.629 19.5131V15.1931C17.6271 15.0413 17.6835 14.8945 17.7866 14.783C17.8897 14.6715 18.0317 14.6038 18.1833 14.5938C18.269 14.5924 18.3541 14.61 18.4322 14.6454C18.5104 14.6808 18.5797 14.733 18.6353 14.7984C18.6599 14.827 19.8483 16.3734 20.5171 17.2529C20.783 17.5966 20.9671 17.8379 20.9671 17.8379V15.1788C20.9682 15.0267 21.0291 14.8811 21.1367 14.7736C21.2442 14.666 21.3898 14.6051 21.5419 14.6041C21.6926 14.604 21.8373 14.6632 21.9448 14.7688C22.0523 14.8744 22.114 15.0179 22.1167 15.1686Z" fill="#00C200"/>
<path id="Vector_4" d="M24.1382 17.9166V18.9393H25.8625C25.941 18.9346 26.0196 18.9461 26.0936 18.9729C26.1675 18.9997 26.2352 19.0414 26.2924 19.0953C26.3496 19.1492 26.3952 19.2143 26.4264 19.2865C26.4576 19.3587 26.4737 19.4365 26.4737 19.5151C26.4737 19.5938 26.4576 19.6716 26.4264 19.7438C26.3952 19.816 26.3496 19.881 26.2924 19.9349C26.2352 19.9889 26.1675 20.0305 26.0936 20.0573C26.0196 20.0842 25.941 20.0956 25.8625 20.0909H23.5552C23.4026 20.0904 23.2564 20.0294 23.1487 19.9212C23.041 19.8131 22.9805 19.6667 22.9805 19.5141V15.1695C22.981 15.0173 23.0417 14.8714 23.1494 14.7637C23.2571 14.656 23.403 14.5953 23.5552 14.5948H25.8564C25.9349 14.5901 26.0135 14.6015 26.0874 14.6283C26.1614 14.6552 26.229 14.6968 26.2863 14.7507C26.3435 14.8047 26.3891 14.8697 26.4203 14.9419C26.4515 15.0141 26.4675 15.0919 26.4675 15.1706C26.4675 15.2492 26.4515 15.327 26.4203 15.3992C26.3891 15.4714 26.3435 15.5365 26.2863 15.5904C26.229 15.6443 26.1614 15.686 26.0874 15.7128C26.0135 15.7396 25.9349 15.751 25.8564 15.7464H24.1382V16.7691H25.8625C26.015 16.7691 26.1612 16.8296 26.2689 16.9374C26.3767 17.0452 26.4373 17.1914 26.4373 17.3439C26.4373 17.4963 26.3767 17.6425 26.2689 17.7503C26.1612 17.8581 26.015 17.9186 25.8625 17.9186L24.1382 17.9166Z" fill="#00C200"/>
</g>
</g>
</g>
</g>
</g>
<defs>
<clipPath id="clip0_46_23548">
<rect width="36" height="36" fill="white"/>
</clipPath>
</defs>
</svg>
